<svg id="Calque_1" data-name="Calque 1" xmlns="http://www.w3.org/2000/svg" viewBox="0 0 141.73 85.04"><g id="Groupe_106" data-name="Groupe 106"><path id="Tracé_100" data-name="Tracé 100" d="M106.63,70.29a12.91,12.91,0,0,0-6.14,5.29,13.21,13.21,0,0,0-1,8.12,12.91,12.91,0,0,0,6.14-5.29A13.21,13.21,0,0,0,106.63,70.29Z" transform="translate(0 0)" style="fill:#3f3d56"/><path id="Tracé_101" data-name="Tracé 101" d="M112.23,75.81a13.07,13.07,0,0,1-4.92,6.48,12.68,12.68,0,0,1-7.94,1.38,13.07,13.07,0,0,1,4.92-6.48A12.68,12.68,0,0,1,112.23,75.81Z" transform="translate(0 0)" style="fill:#ea1d5d"/><rect id="Rectangle_99" data-name="Rectangle 99" y="84.72" width="141.73" height="0.32" style="fill:#2f2e41"/><path id="Tracé_102" data-name="Tracé 102" d="M57.24,69.92a15.14,15.14,0,0,1-5.65-2.32l.19-.26a14.71,14.71,0,0,0,5.54,2.27c3,.55,7.48.28,11.82-4.1,8.45-8.53,16.51-9.38,16.59-9.39l0,.32c-.08,0-8,.85-16.4,9.3a13.48,13.48,0,0,1-9.76,4.4A12.41,12.41,0,0,1,57.24,69.92Z" transform="translate(0 0)" style="fill:#2f2e41"/><ellipse id="Ellipse_13" data-name="Ellipse 13" cx="81.49" cy="61.25" rx="1.9" ry="1.93" style="fill:#2f2e41"/><ellipse id="Ellipse_14" data-name="Ellipse 14" cx="68.04" cy="70.25" rx="1.9" ry="1.93" style="fill:#2f2e41"/><path id="Tracé_103" data-name="Tracé 103" d="M108.12,84.88a65,65,0,0,0-8.27-1.74l.12-1.71c1-9.64-5.38-24.11-5.38-24.11A65.44,65.44,0,0,1,98,79.66a9.22,9.22,0,0,0-5.61-4.1s4.08,3.55,5.25,7.25a155.59,155.59,0,0,0-16.14-1.32l1.4-3.28L80.2,80.94s-1.11-8.2-3.48-8.52l1.74,8S76.4,78.85,75.93,79l1.17,2.38A240.21,240.21,0,0,0,49,82.83l1.32-3.09-2.69,2.73S46.5,74.27,44.13,74l1.74,8s-2.06-1.61-2.53-1.45l1.37,2.78q-5.33.65-11.09,1.56Z" transform="translate(0 0)" style="fill:#3f3d56"/><path id="Tracé_104" data-name="Tracé 104" d="M64.48,7.15c-1.72,1.89,2.78,6.47,2.78,6.47s-9.13,1.56-8.4,1.47.35-7.9.35-7.9S66.21,5.26,64.48,7.15Z" transform="translate(0 0)" style="fill:#a0616a"/><path id="Tracé_105" data-name="Tracé 105" d="M70.84,27.36l-7.93,4.12L58.6,34s-5.08,6.5-6,10.35,4.1,11,4.67,11.7A8.77,8.77,0,0,1,58,57.23c.2.3,1.9-.09,3.77-.49s-.25-3.21-.25-3.21S59.18,47.36,59,47.22s-.73-1.2-.32-1.66a4.17,4.17,0,0,0,.86-1.43,5,5,0,0,1,.66-1.28s7.18-5.92,9.42-7.94,8.2-.75,8.2-.75-2.83,11-3.53,11.7-.78,1.4-.46,2.65,4.47.06,4.47.06l1.53-4.25a71.16,71.16,0,0,0,3.84-11.2A4.81,4.81,0,0,0,81.6,27.6a6.43,6.43,0,0,0-4.75-1L69.52,28l5.09-2.23Z" transform="translate(0 0)" style="fill:#2f2e41"/><path id="Tracé_106" data-name="Tracé 106" d="M41.58,16.76l-9.47-3s-3.82-5-2-5.89,4.06,4.33,4.06,4.33l6.6.43Z" transform="translate(0 0)" style="fill:#a0616a"/><path id="Tracé_107" data-name="Tracé 107" d="M81.38,11.55,89.8,6.24S92.25.41,90.29,0s-2.85,5.23-2.85,5.23L81.17,7.37Z" transform="translate(0 0)" style="fill:#a0616a"/><path id="Tracé_108" data-name="Tracé 108" d="M83,5.54l.16,6.3L68.93,14.41c2.09,4.54,1.56,9.7,6.81,12L58,35.17c.79-6.92-2.5-12.13-5.58-18.6-3.75-1.38-8.1-.37-12.71,1.66l-.83-6.54,19.6-1.43,3.22,1.25L65.19,10C70.26,8.52,77.54,5.6,83,5.54Z" transform="translate(0 0)" style="fill:#ea1d5d"/><path id="Tracé_109" data-name="Tracé 109" d="M74.13,48.31c-.43.38-.83,3.51-.85,4.65s1.46,1.43,2.26,1.49.71.56,1.24,1,2.28.35,4.57-.44-1.54-3.36-1.88-3.48-1.74-3.66-1.74-3.66S74.56,47.93,74.13,48.31Z" transform="translate(0 0)" style="fill:#2f2e41"/><path id="Tracé_110" data-name="Tracé 110" d="M61.59,55.46c.51.26,1.68,3.18,2,4.28s-1,1.76-1.82,2-.55.72-1,1.26-2.12.92-4.53.75.66-3.65,1-3.85.77-4,.77-4S61.08,55.21,61.59,55.46Z" transform="translate(0 0)" style="fill:#2f2e41"/><ellipse id="Ellipse_15" data-name="Ellipse 15" cx="61.61" cy="5.69" rx="3.8" ry="3.86" style="fill:#a0616a"/><path id="Tracé_111" data-name="Tracé 111" d="M57.22,5.3a3.71,3.71,0,0,1-.13-3,3.52,3.52,0,0,1,3-2.15c3.89-.61,6,2.16,5.86,3.07s-.63,3.1-.63,3.1.23-2.07-.77-2.15-4.89-.38-5.87.67a2.33,2.33,0,0,0-.59,2.22Z" transform="translate(0 0)" style="fill:#2f2e41"/></g></svg>