<svg id="Calque_1" data-name="Calque 1" xmlns="http://www.w3.org/2000/svg" xmlns:xlink="http://www.w3.org/1999/xlink" viewBox="0 0 113.4 79.37"><defs><linearGradient id="Dégradé_sans_nom" x1="-242.22" y1="181.34" x2="-241.87" y2="181.34" gradientTransform="translate(17494.44 -5334.43) scale(71.87 29.79)" gradientUnits="userSpaceOnUse"><stop offset="0" stop-color="#00503e"/><stop offset="1" stop-color="#023222"/></linearGradient><linearGradient id="Dégradé_sans_nom_2" x1="1408.85" y1="-400" x2="1409.8" y2="-398.3" gradientTransform="translate(-20898.37 5691.6) scale(14.89 14.25)" gradientUnits="userSpaceOnUse"><stop offset="0" stop-color="#fb9a2b"/><stop offset="1" stop-color="#e65925"/></linearGradient><linearGradient id="Dégradé_sans_nom_3" x1="-74.92" y1="104.15" x2="-74.57" y2="104.15" gradientTransform="translate(12588.73 -10950.53) scale(167.67 105.67)" gradientUnits="userSpaceOnUse"><stop offset="0" stop-color="#53cd9f"/><stop offset="1" stop-color="#0d7a5c"/></linearGradient><linearGradient id="Dégradé_sans_nom_4" x1="-77.38" y1="74.24" x2="-77.03" y2="74.24" gradientTransform="translate(12272 -8755) scale(158.24 118.56)" xlink:href="#Dégradé_sans_nom_3"/><linearGradient id="Dégradé_sans_nom_5" x1="-100.88" y1="104.81" x2="-100.53" y2="104.81" gradientTransform="translate(4305.64 -4597.3) scale(42.19 44.28)" xlink:href="#Dégradé_sans_nom_3"/><linearGradient id="Dégradé_sans_nom_6" x1="-99.95" y1="113.17" x2="-99.6" y2="113.17" gradientTransform="translate(3346.16 -1677.01) scale(32.82 15.16)" xlink:href="#Dégradé_sans_nom_3"/><linearGradient id="Dégradé_sans_nom_7" x1="-85.62" y1="112.44" x2="-85.27" y2="112.44" gradientTransform="translate(13772.24 -9484.74) scale(160.5 84.84)" xlink:href="#Dégradé_sans_nom_3"/><linearGradient id="Dégradé_sans_nom_8" x1="-106.48" y1="126.61" x2="-106.13" y2="126.61" gradientTransform="translate(4683.03 -5509.85) scale(43.48 43.92)" xlink:href="#Dégradé_sans_nom_3"/><linearGradient id="Dégradé_sans_nom_9" x1="1399.16" y1="-412.77" x2="1398.94" y2="-412.21" gradientTransform="translate(-271873.49 35347.89) scale(194.37 85.54)" xlink:href="#Dégradé_sans_nom_3"/><linearGradient id="Dégradé_sans_nom_10" x1="1401.13" y1="-408.59" x2="1401.48" y2="-408.59" gradientTransform="translate(-81471.09 8997.8) scale(58.2 21.84)" xlink:href="#Dégradé_sans_nom"/><linearGradient id="Dégradé_sans_nom_11" x1="1399" y1="-389.4" x2="1399.35" y2="-389.4" gradientTransform="translate(-247509.37 2637.71) scale(176.94 6.64)" xlink:href="#Dégradé_sans_nom"/><linearGradient id="Dégradé_sans_nom_12" x1="-68.89" y1="170.16" x2="-68.54" y2="170.16" gradientTransform="translate(6426.33 -8971.39) scale(92.91 53.13)" xlink:href="#Dégradé_sans_nom"/><linearGradient id="Dégradé_sans_nom_13" x1="-58.56" y1="177.76" x2="-58.43" y2="178.31" gradientTransform="translate(1369.99 -2302.8) scale(22.88 13.3)" xlink:href="#Dégradé_sans_nom_2"/><linearGradient id="Dégradé_sans_nom_14" x1="1400.99" y1="-344.15" x2="1401.34" y2="-344.15" gradientTransform="translate(-115553.26 815.22) scale(82.5 2.2)" xlink:href="#Dégradé_sans_nom"/><linearGradient id="Dégradé_sans_nom_15" x1="-187.43" y1="112.68" x2="-187.45" y2="113.04" gradientTransform="translate(5855.22 -3436.79) scale(30.84 30.84)" gradientUnits="userSpaceOnUse"><stop offset="0" stop-color="#c9cd55"/><stop offset="0.51" stop-color="#659c52"/><stop offset="1" stop-color="#287f50"/></linearGradient><linearGradient id="Dégradé_sans_nom_16" x1="-197.4" y1="162.4" x2="-197.54" y2="162.88" gradientTransform="translate(6172.43 -4956.73) scale(30.84 30.84)" xlink:href="#Dégradé_sans_nom_15"/><linearGradient id="Dégradé_sans_nom_17" x1="-169.28" y1="148.32" x2="-169.42" y2="148.81" gradientTransform="matrix(28.17, -12.55, 12.55, 28.17, 2974.82, -6254.46)" xlink:href="#Dégradé_sans_nom_15"/><linearGradient id="Dégradé_sans_nom_18" x1="1400.69" y1="-410.49" x2="1400.41" y2="-411.18" gradientTransform="translate(-116460.82 18406.24) scale(83.22 44.6)" xlink:href="#Dégradé_sans_nom_3"/><linearGradient id="Dégradé_sans_nom_19" x1="1401.96" y1="-406.7" x2="1402.31" y2="-406.7" gradientTransform="translate(-67118.18 6789.99) scale(47.93 16.51)" xlink:href="#Dégradé_sans_nom"/><linearGradient id="Dégradé_sans_nom_20" x1="-5.22" y1="263.37" x2="-4.87" y2="263.37" gradientTransform="translate(1590.2 -606.73) scale(304.12 2.6)" xlink:href="#Dégradé_sans_nom_3"/><linearGradient id="Dégradé_sans_nom_21" x1="-2.39" y1="217.38" x2="-2.26" y2="219.46" gradientTransform="translate(217.76 -1499.17) scale(56.88 7.22)" gradientUnits="userSpaceOnUse"><stop offset="0" stop-color="#c7a44f"/><stop offset="1" stop-color="#609a3f"/></linearGradient><linearGradient id="Dégradé_sans_nom_22" x1="-2.42" y1="219.15" x2="-2.29" y2="221.24" gradientTransform="translate(222.58 -1513.4) scale(56.88 7.22)" xlink:href="#Dégradé_sans_nom_21"/><linearGradient id="Dégradé_sans_nom_23" x1="1412.82" y1="-402.46" x2="1413.81" y2="-401.05" gradientTransform="translate(-20376.28 6926.97) scale(14.47 17.2)" xlink:href="#Dégradé_sans_nom_2"/><linearGradient id="Dégradé_sans_nom_24" x1="-130.58" y1="20.59" x2="-130.23" y2="20.59" gradientTransform="translate(2728.08 -589.02) scale(20.5 29.07)" xlink:href="#Dégradé_sans_nom_2"/><linearGradient id="Dégradé_sans_nom_25" x1="1410.55" y1="-405.87" x2="1409.89" y2="-404.22" gradientTransform="translate(-30609.02 9468.17) scale(21.74 23.32)" xlink:href="#Dégradé_sans_nom_3"/><linearGradient id="Dégradé_sans_nom_26" x1="1416.02" y1="-398.72" x2="1415.11" y2="-395.99" gradientTransform="translate(-22402.03 5640.37) scale(15.85 14.15)" xlink:href="#Dégradé_sans_nom_3"/><linearGradient id="Dégradé_sans_nom_27" x1="-161.48" y1="38.46" x2="-161.72" y2="39.36" gradientTransform="translate(4459.66 -1030.76) scale(27.2 26.97)" xlink:href="#Dégradé_sans_nom_3"/><linearGradient id="Dégradé_sans_nom_28" x1="1416.9" y1="-401.16" x2="1417.83" y2="-399.63" gradientTransform="translate(-21559.23 6322.38) scale(15.24 15.7)" xlink:href="#Dégradé_sans_nom_2"/><linearGradient id="Dégradé_sans_nom_29" x1="10.5" y1="82" x2="10.85" y2="82" gradientTransform="translate(-388.87 -3713.3) scale(37.41 45.88)" xlink:href="#Dégradé_sans_nom"/><linearGradient id="Dégradé_sans_nom_30" x1="15.51" y1="83.79" x2="15.86" y2="83.79" gradientTransform="translate(-331.6 -2865.39) scale(22.6 34.64)" xlink:href="#Dégradé_sans_nom"/><linearGradient id="Dégradé_sans_nom_31" x1="26.43" y1="82.14" x2="26.78" y2="82.14" gradientTransform="translate(-323.61 -3615.79) scale(12.94 44.6)" xlink:href="#Dégradé_sans_nom"/><linearGradient id="Dégradé_sans_nom_32" x1="23.24" y1="90.78" x2="23.59" y2="90.78" gradientTransform="translate(-337.34 -1362.78) scale(15.13 15.4)" xlink:href="#Dégradé_sans_nom_2"/><linearGradient id="Dégradé_sans_nom_33" x1="-1.84" y1="2.7" x2="-1.49" y2="2.7" gradientTransform="translate(180.3 -205.96) scale(96.83 81.54)" xlink:href="#Dégradé_sans_nom_15"/><linearGradient id="Dégradé_sans_nom_34" x1="-229.24" y1="86.08" x2="-228.89" y2="86.08" gradientTransform="translate(3252.33 -266.46) scale(13.8 3.92)" xlink:href="#Dégradé_sans_nom_2"/><linearGradient id="Dégradé_sans_nom_35" x1="-236.32" y1="94.89" x2="-235.98" y2="94.89" gradientTransform="translate(3084.33 -754.76) scale(12.62 8.5)" xlink:href="#Dégradé_sans_nom_2"/><linearGradient id="Dégradé_sans_nom_36" x1="-214.82" y1="23.26" x2="-214.82" y2="23.56" gradientTransform="translate(6710.3 -710.08) scale(30.84)" xlink:href="#Dégradé_sans_nom_15"/></defs><g id="Groupe_67" data-name="Groupe 67"><g id="Groupe_40" data-name="Groupe 40"><path id="Tracé_14" data-name="Tracé 14" d="M88.51,69.37a13.54,13.54,0,0,1-2.68-3l5.87-3.76,0,0a7.57,7.57,0,0,0,1.47,1.52A9.24,9.24,0,0,0,97.45,66,10.25,10.25,0,0,0,103,65a15.81,15.81,0,0,0,2.65-1.52l5.21,1-1,4.57a21.49,21.49,0,0,1-8.27,3.75A15.56,15.56,0,0,1,88.51,69.37Z" transform="translate(0.01 0)" style="fill:url(#Dégradé_sans_nom)"/></g><path id="Tracé_15" data-name="Tracé 15" d="M97,19.83l1.38-.72,1.37.74a.21.21,0,0,0,.29-.09.22.22,0,0,0,0-.14l-.25-1.55L101,17a.23.23,0,0,0,0-.31.2.2,0,0,0-.12-.06l-1.54-.24L98.62,15a.21.21,0,0,0-.28-.1.24.24,0,0,0-.1.1l-.7,1.41L96,16.59a.21.21,0,0,0-.18.24.23.23,0,0,0,.06.12L97,18.05l-.27,1.55a.22.22,0,0,0,.17.25A.2.2,0,0,0,97,19.83Z" transform="translate(0.01 0)" style="fill:url(#Dégradé_sans_nom_2)"/><rect id="Rectangle_7" data-name="Rectangle 7" x="26.33" y="48.26" width="67.81" height="7.2" style="fill:#f47257"/><g id="Groupe_42" data-name="Groupe 42"><path id="Tracé_16" data-name="Tracé 16" d="M76.09,73.73A129.63,129.63,0,0,0,27.14,58.86L29,36.36a150,150,0,0,1,56.6,17.19Z" transform="translate(0.01 0)" style="fill:url(#Dégradé_sans_nom_3)"/><path id="Tracé_17" data-name="Tracé 17" d="M28.64,54.74l1.29-14A3.18,3.18,0,0,0,33.52,38,148.88,148.88,0,0,1,81,52.45a3.44,3.44,0,0,0,1.73,4.28L76.85,69.38A2.8,2.8,0,0,0,73,70.56a1.47,1.47,0,0,0-.1.22A130.75,130.75,0,0,0,31.27,58.12a3,3,0,0,0-2.59-3.38Z" transform="translate(0.01 0)" style="fill:#b7d972"/><g id="Groupe_41" data-name="Groupe 41"><path id="Tracé_18" data-name="Tracé 18" d="M63.93,55.51a7.66,7.66,0,0,1-9.57,4.85,8.33,8.33,0,0,1-5.59-9.59,7.4,7.4,0,0,1,9.69-5.28A8,8,0,0,1,63.93,55.51Z" transform="translate(0.01 0)" style="fill:#50bfa5"/><path id="Tracé_19" data-name="Tracé 19" d="M54.33,58.94l.33-1.35a7.63,7.63,0,0,1-1.61-.76.87.87,0,0,1-.31-1.13l0-.05a.82.82,0,0,1,1.12-.34l.07,0a5.07,5.07,0,0,0,1.47.69c.81.23,1.43.08,1.58-.48s-.23-1-1.2-1.67c-1.41-.94-2.31-1.93-2-3.31s1.42-2,3.08-1.86l.33-1.35,1.47.42c-.1.42-.21.83-.31,1.25a6.92,6.92,0,0,1,1.3.59A.88.88,0,0,1,60,50.8h0a.85.85,0,0,1-1.19.27h0a4.74,4.74,0,0,0-1.24-.55c-1-.27-1.36,0-1.45.44s.33.91,1.44,1.72c1.57,1.1,2,2.1,1.7,3.36a2.72,2.72,0,0,1-3.19,1.85c-.12.48-.25,1-.37,1.44C55.23,59.2,54.78,59.07,54.33,58.94Z" transform="translate(0.01 0)" style="fill:#3c8f7c"/><path id="Tracé_20" data-name="Tracé 20" d="M46.44,50.61q-5.85-1.36-11.8-2.23l.27-2.16q6,.87,12,2.26Z" transform="translate(0.01 0)" style="fill:#50bfa5"/><path id="Tracé_21" data-name="Tracé 21" d="M76.83,61.55q-5.44-2.7-11.06-4.91l.71-2q5.7,2.23,11.22,5Z" transform="translate(0.01 0)" style="fill:#50bfa5"/></g></g><g id="Groupe_44" data-name="Groupe 44"><path id="Tracé_22" data-name="Tracé 22" d="M83.23,48A117.58,117.58,0,0,0,39,67.72L28,48.61a135.8,135.8,0,0,1,51.2-22.82Z" transform="translate(0.01 0)" style="fill:url(#Dégradé_sans_nom_4)"/><path id="Tracé_23" data-name="Tracé 23" d="M37.81,63.48l-6.73-12a3.56,3.56,0,0,0,1.19-4.44A135,135,0,0,1,75.19,27.92a3,3,0,0,0,3.59,2.3h0L81.42,44a3,3,0,0,0-2.12,3.63,118.37,118.37,0,0,0-37.69,16.8,2.56,2.56,0,0,0-3.44-1.21A3.13,3.13,0,0,0,37.81,63.48Z" transform="translate(0.01 0)" style="fill:#b7d972"/><g id="Groupe_43" data-name="Groupe 43"><path id="Tracé_24" data-name="Tracé 24" d="M64.28,41.35a8.42,8.42,0,0,1-4.41,10,7.08,7.08,0,0,1-9.37-4,8.14,8.14,0,0,1,4.26-10.44A6.88,6.88,0,0,1,64.28,41.35Z" transform="translate(0.01 0)" style="fill:url(#Dégradé_sans_nom_5)"/><path id="Tracé_25" data-name="Tracé 25" d="M59.06,50.27c-.16-.43-.33-.86-.49-1.28a6.31,6.31,0,0,1-1.6.43.79.79,0,0,1-.85-.7.43.43,0,0,0,0,0,.86.86,0,0,1,.7-1h0a4.72,4.72,0,0,0,1.47-.4c.72-.34,1.1-.86.9-1.4s-.72-.66-1.8-.55c-1.56.16-2.76,0-3.29-1.34a2.9,2.9,0,0,1,1.26-3.47l-.5-1.28,1.31-.61.45,1.19a5.69,5.69,0,0,1,1.28-.37.79.79,0,0,1,.89.65s0,0,0,.06h0a.91.91,0,0,1-.75,1,4.39,4.39,0,0,0-1.22.36c-.86.4-1,.91-.83,1.28s.74.51,2,.44c1.76-.14,2.66.35,3.09,1.58a3,3,0,0,1-1.34,3.53l.52,1.38C59.87,49.89,59.47,50.07,59.06,50.27Z" transform="translate(0.01 0)" style="fill:#edfdfc"/><path id="Tracé_26" data-name="Tracé 26" d="M48.68,48.73c-3.38,1.79-6.68,3.73-9.93,5.84l-1-1.9q4.92-3.2,10.06-5.92Z" transform="translate(0.01 0)" style="fill:#50bfa5"/><path id="Tracé_27" data-name="Tracé 27" d="M77.11,37.83q-5.49,1.37-10.85,3.23L65.66,39q5.43-1.89,11-3.27Z" transform="translate(0.01 0)" style="fill:url(#Dégradé_sans_nom_6)"/></g></g><g id="Groupe_46" data-name="Groupe 46"><path id="Tracé_28" data-name="Tracé 28" d="M85.75,62a118.44,118.44,0,0,0-48.43,7.2L30.88,47.73a137,137,0,0,1,56-8.32Q86.32,50.69,85.75,62Z" transform="translate(0.01 0)" style="fill:url(#Dégradé_sans_nom_7)"/><path id="Tracé_29" data-name="Tracé 29" d="M37.16,64.75,33.24,51.34a3.41,3.41,0,0,0,2.2-4,136.17,136.17,0,0,1,47-7,3.18,3.18,0,0,0,3.07,3.19l-.6,14.09a2.89,2.89,0,0,0-2.94,2.84v.1a119.35,119.35,0,0,0-41.23,6.13,2.72,2.72,0,0,0-3.27-2.06A1.45,1.45,0,0,0,37.16,64.75Z" transform="translate(0.01 0)" style="fill:#b7d972"/><g id="Groupe_45" data-name="Groupe 45"><path id="Tracé_30" data-name="Tracé 30" d="M68.49,50.45A8,8,0,0,1,61.81,59a7.57,7.57,0,0,1-8.37-6.41,7.78,7.78,0,0,1,6.62-9,7.32,7.32,0,0,1,8.35,6.17A5.4,5.4,0,0,1,68.49,50.45Z" transform="translate(0.01 0)" style="fill:url(#Dégradé_sans_nom_8)"/><path id="Tracé_31" data-name="Tracé 31" d="M61.27,57.68c-.06-.46-.13-.92-.19-1.38a6.38,6.38,0,0,1-1.69,0,.83.83,0,0,1-.68-.9v-.05a.83.83,0,0,1,.88-.78h.06a4.74,4.74,0,0,0,1.55,0c.79-.13,1.29-.54,1.22-1.12s-.57-.83-1.66-1c-1.58-.27-2.73-.79-2.95-2.19a2.76,2.76,0,0,1,2-3c-.07-.46-.13-.92-.2-1.38l1.44-.24c.06.42.12.85.17,1.28a5.63,5.63,0,0,1,1.36,0,.82.82,0,0,1,.72.91v0h0a.86.86,0,0,1-1,.75,4.29,4.29,0,0,0-1.29,0c-.94.15-1.18.61-1.12,1s.62.69,1.89,1c1.78.34,2.55,1.06,2.7,2.36A2.88,2.88,0,0,1,62.42,56c.07.49.13,1,.2,1.48C62.16,57.53,61.72,57.6,61.27,57.68Z" transform="translate(0.01 0)" style="fill:#edfdfc"/><path id="Tracé_32" data-name="Tracé 32" d="M51.33,53.4q-5.64,1.23-11.18,3l-.54-2.1q5.61-1.77,11.34-3C51.08,52,51.21,52.68,51.33,53.4Z" transform="translate(0.01 0)" style="fill:#50bfa5"/><path id="Tracé_33" data-name="Tracé 33" d="M82,50.5q-5.76-.16-11.5.21c0-.73-.07-1.45-.11-2.18q5.82-.37,11.66-.21C82.05,49,82,49.77,82,50.5Z" transform="translate(0.01 0)" style="fill:#50bfa5"/></g></g><rect id="Rectangle_8" data-name="Rectangle 8" x="26.33" y="48.26" width="67.81" height="30.25" style="fill:url(#Dégradé_sans_nom_9)"/><path id="Tracé_34" data-name="Tracé 34" d="M94.13,70.79H77.35A1.4,1.4,0,0,0,76,72.22h0a1.39,1.39,0,0,0,1.35,1.43H75.17a1.4,1.4,0,0,0-1.35,1.43h0a1.39,1.39,0,0,0,1.35,1.43h.38a1.4,1.4,0,0,0-1.35,1.43,1.56,1.56,0,0,0,.11.57H94.12Z" transform="translate(0.01 0)" style="fill:url(#Dégradé_sans_nom_10)"/><rect id="Rectangle_9" data-name="Rectangle 9" x="28.83" y="49.75" width="61.73" height="2.35" style="fill:url(#Dégradé_sans_nom_11)"/><g id="Groupe_47" data-name="Groupe 47"><path id="Rectangle_10" data-name="Rectangle 10" d="M34.84,59.35H48.72A9.33,9.33,0,0,1,58,68.74h0a9.33,9.33,0,0,1-9.27,9.39H34.84a9.33,9.33,0,0,1-9.27-9.39h0A9.33,9.33,0,0,1,34.84,59.35Z" transform="translate(0.01 0)" style="fill:url(#Dégradé_sans_nom_12)"/><rect id="Rectangle_11" data-name="Rectangle 11" x="27.66" y="63.08" width="7.98" height="4.7" style="fill:url(#Dégradé_sans_nom_13)"/><rect id="Rectangle_12" data-name="Rectangle 12" x="41.79" y="61.89" width="14.15" height="0.88" style="fill:#b7d972"/><rect id="Rectangle_13" data-name="Rectangle 13" x="28.84" y="71.93" width="26.05" height="1.09" style="fill:#b7d972"/><rect id="Rectangle_14" data-name="Rectangle 14" x="28.84" y="74.48" width="26.05" height="1.09" style="fill:#b7d972"/></g><rect id="Rectangle_15" data-name="Rectangle 15" x="29.61" y="55.98" width="28.78" height="0.78" style="fill:url(#Dégradé_sans_nom_14)"/><g id="Groupe_49" data-name="Groupe 49"><ellipse id="Ellipse_8" data-name="Ellipse 8" cx="74.87" cy="44.45" rx="6.41" ry="6.5" style="fill:#edfdfc"/><path id="Tracé_35" data-name="Tracé 35" d="M79.26,41.32A5.5,5.5,0,0,1,78,48.92a5.33,5.33,0,0,1-7.49-1.33A5.5,5.5,0,0,1,71.77,40h0A5.33,5.33,0,0,1,79.26,41.32Z" transform="translate(0.01 0)" style="fill:url(#Dégradé_sans_nom_15)"/><g id="Groupe_48" data-name="Groupe 48"><path id="Tracé_36" data-name="Tracé 36" d="M75.47,48.28l-.23-.88a4,4,0,0,1-1.15.1.56.56,0,0,1-.52-.55v0a.55.55,0,0,1,.54-.56h0a3,3,0,0,0,1-.1c.52-.14.82-.44.72-.81s-.45-.5-1.18-.54c-1.07-.07-1.85-.35-2.09-1.24a1.78,1.78,0,0,1,1.1-2.07l-.23-.88.89-.25.22.81a4.13,4.13,0,0,1,.86-.11.55.55,0,0,1,.55.55h0a.55.55,0,0,1-.53.56h0a2.6,2.6,0,0,0-.83.11c-.59.16-.72.47-.64.73s.44.41,1.3.5c1.2.09,1.76.48,2,1.31a1.85,1.85,0,0,1-1.17,2.16l.25.94Z" transform="translate(0.01 0)" style="fill:#edfdfc"/></g></g><g id="Groupe_51" data-name="Groupe 51"><ellipse id="Ellipse_9" data-name="Ellipse 9" cx="80.91" cy="65.25" rx="6.41" ry="6.5" style="fill:#edfdfc"/><path id="Tracé_37" data-name="Tracé 37" d="M85.3,62.11A5.5,5.5,0,0,1,84,69.71a5.33,5.33,0,0,1-7.49-1.33,5.5,5.5,0,0,1,1.31-7.6h0A5.33,5.33,0,0,1,85.3,62.11Z" transform="translate(0.01 0)" style="fill:url(#Dégradé_sans_nom_16)"/><g id="Groupe_50" data-name="Groupe 50"><path id="Tracé_38" data-name="Tracé 38" d="M81.53,69.08l-.23-.88a4,4,0,0,1-1.15.1.56.56,0,0,1-.52-.55v0a.55.55,0,0,1,.54-.56h0a3.32,3.32,0,0,0,1-.1c.52-.14.82-.44.72-.81s-.44-.5-1.18-.54c-1.07-.07-1.85-.35-2.09-1.24a1.78,1.78,0,0,1,1.1-2.07l-.23-.88.89-.25.22.81a4.13,4.13,0,0,1,.86-.11.55.55,0,0,1,.55.55h0a.55.55,0,0,1-.54.56h0a2.6,2.6,0,0,0-.83.11c-.59.16-.72.47-.65.73s.45.41,1.31.5c1.19.09,1.76.48,2,1.31a1.85,1.85,0,0,1-1.17,2.16l.25.94Z" transform="translate(0.01 0)" style="fill:#fff"/></g></g><g id="Groupe_53" data-name="Groupe 53"><ellipse id="Ellipse_10" data-name="Ellipse 10" cx="68.46" cy="57.11" rx="6.41" ry="6.5" style="fill:#edfdfc"/><ellipse id="Ellipse_11" data-name="Ellipse 11" cx="68.46" cy="57.11" rx="5.38" ry="5.45" style="fill:url(#Dégradé_sans_nom_17)"/><g id="Groupe_52" data-name="Groupe 52"><path id="Tracé_39" data-name="Tracé 39" d="M66.78,60.61l.31-.86a4.74,4.74,0,0,1-1-.58.55.55,0,0,1-.11-.75l0,0a.55.55,0,0,1,.76-.15l0,0a3.25,3.25,0,0,0,.9.52c.51.19.92.12,1-.25s-.08-.66-.66-1.13c-.84-.67-1.32-1.36-1-2.24a1.75,1.75,0,0,1,2.08-1.05l.31-.86.87.32-.28.79a3.84,3.84,0,0,1,.77.42.57.57,0,0,1,.14.77h0a.55.55,0,0,1-.76.15h0a3.12,3.12,0,0,0-.74-.4c-.58-.21-.85,0-.94.22s.14.6.79,1.17c.92.77,1.17,1.42.88,2.23A1.82,1.82,0,0,1,68,60l-.33.92Z" transform="translate(0.01 0)" style="fill:#edfdfc"/></g></g><rect id="Rectangle_16" data-name="Rectangle 16" x="61.53" y="60.85" width="29.03" height="15.77" style="fill:url(#Dégradé_sans_nom_18)"/><path id="Tracé_40" data-name="Tracé 40" d="M76,72.22h0a1.39,1.39,0,0,0,1.35,1.43H75.17a1.4,1.4,0,0,0-1.35,1.43h0a1.39,1.39,0,0,0,1.35,1.43h.38a1.25,1.25,0,0,0-.54.12H90.55V70.79H77.35A1.39,1.39,0,0,0,76,72.22Z" transform="translate(0.01 0)" style="fill:url(#Dégradé_sans_nom_19)"/><g id="Groupe_55" data-name="Groupe 55"><g id="Groupe_54" data-name="Groupe 54"><path id="Tracé_41" data-name="Tracé 41" d="M2.58,78.05h0a.44.44,0,0,0,.42.46H108.25a.44.44,0,0,0,.42-.46h0a.44.44,0,0,0-.42-.46H3A.45.45,0,0,0,2.58,78.05Z" transform="translate(0.01 0)" style="fill:url(#Dégradé_sans_nom_20)"/></g><path id="Tracé_42" data-name="Tracé 42" d="M94.3,79.37H77a1.27,1.27,0,0,1-1.26-1.28h0A1.27,1.27,0,0,1,77,76.81H94.3a1.27,1.27,0,0,1,1.26,1.28h0a1.27,1.27,0,0,1-1.26,1.28Z" transform="translate(0.01 0)" style="fill:url(#Dégradé_sans_nom_21)"/><path id="Tracé_43" data-name="Tracé 43" d="M94,76.82H76.62a1.27,1.27,0,0,1-1.26-1.28h0a1.27,1.27,0,0,1,1.26-1.28H94a1.27,1.27,0,0,1,1.26,1.28h0A1.28,1.28,0,0,1,94,76.82Z" transform="translate(0.01 0)" style="fill:#edfdfc"/><path id="Tracé_44" data-name="Tracé 44" d="M96,74.27H78.65A1.27,1.27,0,0,1,77.39,73h0a1.27,1.27,0,0,1,1.26-1.28H96A1.27,1.27,0,0,1,97.24,73h0A1.28,1.28,0,0,1,96,74.27Z" transform="translate(0.01 0)" style="fill:url(#Dégradé_sans_nom_22)"/></g><path id="Tracé_45" data-name="Tracé 45" d="M73.94,19l.22,1.51-2.36.63,0,2.25-1.69.76.38.87,2.26-1,0-2.13,2.46-.65-.33-2.28Z" transform="translate(0.01 0)" style="fill:url(#Dégradé_sans_nom_23)"/><g id="Groupe_56" data-name="Groupe 56"><path id="Tracé_46" data-name="Tracé 46" d="M51.61,14.22l.45-1.14a5.9,5.9,0,0,1-1.32-.84.76.76,0,0,1-.12-1l0,0a.73.73,0,0,1,1-.16.08.08,0,0,1,0,0,4.17,4.17,0,0,0,1.2.75c.68.28,1.25.2,1.44-.28s-.08-.9-.84-1.56c-1.1-1-1.73-1.91-1.26-3.08a2.35,2.35,0,0,1,2.86-1.32l.45-1.14,1.16.48L56.31,6a5.25,5.25,0,0,1,1,.6.76.76,0,0,1,.15,1h0a.73.73,0,0,1-1,.16l0,0a4.22,4.22,0,0,0-1-.58c-.77-.32-1.16-.08-1.29.26s.16.82,1,1.62c1.21,1.08,1.52,2,1.09,3.06a2.44,2.44,0,0,1-3,1.36l-.49,1.23Z" transform="translate(0.01 0)" style="fill:url(#Dégradé_sans_nom_24)"/></g><path id="Tracé_47" data-name="Tracé 47" d="M53.77,26.42a.48.48,0,0,1-.08.6,4.49,4.49,0,0,1-1.48.9,3.69,3.69,0,0,1-2.88,0,3.47,3.47,0,0,1-1.48-1.36l-.55.21a.35.35,0,0,1-.46-.21h0A.36.36,0,0,1,47,26h0l.45-.17c-.07-.15-.12-.25-.15-.33A3.23,3.23,0,0,1,47.2,25l-.46.18a.35.35,0,0,1-.46-.21h0a.36.36,0,0,1,.21-.47l.56-.21a3.8,3.8,0,0,1,.27-2A4.18,4.18,0,0,1,51,20a.49.49,0,0,1,.49.47h0A.49.49,0,0,1,51,21h0a3.72,3.72,0,0,0-1.09.23,2.58,2.58,0,0,0-1.47,1.34,2.17,2.17,0,0,0-.16,1.33l3.15-1.2a.35.35,0,0,1,.46.21h0a.36.36,0,0,1-.21.47l-3.29,1.25c0,.16.09.32.12.42a4.12,4.12,0,0,0,.17.42L52,24.17a.37.37,0,0,1,.47.22h0a.38.38,0,0,1-.21.48l-3.16,1.2a2.28,2.28,0,0,0,.93.81,2.49,2.49,0,0,0,2,0,3.91,3.91,0,0,0,1-.6.46.46,0,0,1,.66.08l0,0Z" transform="translate(0.01 0)" style="fill:url(#Dégradé_sans_nom_25)"/><path id="Tracé_48" data-name="Tracé 48" d="M45.16,15l-1.43.15-.49-2.31-2.12,0-.64-1.67-.83.33.86,2.23,2,0,.51,2.4,2.15-.22Z" transform="translate(0.01 0)" style="fill:url(#Dégradé_sans_nom_26)"/><g id="Groupe_57" data-name="Groupe 57"><path id="Tracé_49" data-name="Tracé 49" d="M61.7,13.31l1.53.51s2.43-.8,2.67-1.3.31-1.72.65-1.75a1,1,0,0,1,1.17.91c.12.6-.76,2.35-.62,2.54a8.29,8.29,0,0,0,1.6.66,1.22,1.22,0,0,1,.79,1h0a.68.68,0,0,1-.41.72l-.44.17.14.46a.68.68,0,0,1-.42.83l-.34.12.11.28a.66.66,0,0,1-.37.86l-.05,0-.3.09v.08a.67.67,0,0,1-.48.74l-.3.08L62.56,19a3,3,0,0,1-1-.61l-1.35-.72a.34.34,0,0,1-.16-.41l1.26-3.67A.33.33,0,0,1,61.7,13.31Z" transform="translate(0.01 0)" style="fill:url(#Dégradé_sans_nom_27)"/></g><path id="Tracé_50" data-name="Tracé 50" d="M37.48,29.73l.32-1.63,1.51-.65a.23.23,0,0,0,.12-.3.21.21,0,0,0-.1-.11l-1.43-.82-.15-1.66a.22.22,0,0,0-.24-.21.2.2,0,0,0-.13.06l-1.21,1.12-1.6-.37a.23.23,0,0,0-.27.17.2.2,0,0,0,0,.15L35,27l-.84,1.43a.23.23,0,0,0,.08.31.17.17,0,0,0,.14,0L36,28.57l1.08,1.25a.22.22,0,0,0,.32,0A.14.14,0,0,0,37.48,29.73Z" transform="translate(0.01 0)" style="fill:url(#Dégradé_sans_nom_28)"/><g id="Groupe_60" data-name="Groupe 60"><g id="Groupe_58" data-name="Groupe 58"><path id="Tracé_51" data-name="Tracé 51" d="M17.8,69.74a21.67,21.67,0,0,0-2.33,1.91c-.46.63,3.4,1.81,3,1.07-.1-.17-.37-.74-.39-.8-.06-.3.75-1.11.75-1.11Z" transform="translate(0.01 0)" style="fill:#f7a491"/><path id="Tracé_52" data-name="Tracé 52" d="M19.5,74,18.14,72a3.68,3.68,0,0,1-1.73-1.2,3.25,3.25,0,0,0-1.27,1,22.17,22.17,0,0,0,2.32,2.12,6.17,6.17,0,0,0,2,1.14C20.6,75.43,19.5,74,19.5,74Z" transform="translate(0.01 0)" style="fill:#002a24"/><path id="Tracé_53" data-name="Tracé 53" d="M1,43l.33.29c.1.08.43.29.43.29A6.16,6.16,0,0,0,3,44.15a.58.58,0,0,0,0-.41c-.06-.07-.23-.14-.29-.2a.21.21,0,0,1,0-.28c.07-.08.48.15.48.15a1.48,1.48,0,0,1,.46.4,2,2,0,0,1,.39.91,18.47,18.47,0,0,0,1.72.87s4.92,2.07,5.18,2.19h0a1.47,1.47,0,0,1-.15.65c-.12.71-.33.76-.49,1.45-.75-.39-6-3.3-6.51-3.61L2.46,46a5.89,5.89,0,0,1-1-.49A4.44,4.44,0,0,1,.46,45c-.42-.33.12-.21.12-.21s.89.48.91.4-.49-.29-1-.65l-.35-.27c-.29-.22-.24-.46.1-.27a4.08,4.08,0,0,1,.44.28,3.62,3.62,0,0,0,.43.24c.14.09.29.17.44.25,0,0,.07,0-.06-.13S1,44.27.8,44.08l-.38-.33a3.43,3.43,0,0,1-.32-.43c.09-.15.39.07.53.24a2.55,2.55,0,0,1,.41.3s.65.37.69.28c-.21-.22-.44-.43-.67-.63S.5,42.86.55,42.8,1,43,1,43Z" transform="translate(0.01 0)" style="fill:#f8a492"/><path id="Tracé_54" data-name="Tracé 54" d="M14.73,54.65l.32,1.59,8,7.37-5.72,5.87,1.54,1.6s8.45-6.29,8.75-7.11c.47-1.27-6.06-9.67-6.06-9.67Z" transform="translate(0.01 0)" style="fill:#473b1e"/><path id="Tracé_55" data-name="Tracé 55" d="M9.19,73.92S7.58,75.7,7.26,76.14c-.46.63,3,1.56,2.53.82-.1-.17-.37-.74-.39-.8-.06-.3.75-1.11.75-1.11Z" transform="translate(0.01 0)" style="fill:#f7a491"/><path id="Tracé_56" data-name="Tracé 56" d="M11.58,76.91l-2.22-.83a3.32,3.32,0,0,1-2.11.07,3,3,0,0,0-.48,1.47s4.21.54,5.38.2S11.58,76.91,11.58,76.91Z" transform="translate(0.01 0)" style="fill:#002a24"/><path id="Tracé_57" data-name="Tracé 57" d="M15,55.39l.36,10L8.27,74.25l1.92,1.06s7.84-6.82,8.7-8.72c.53-1.18,2.33-11.84,2.33-11.84Z" transform="translate(0.01 0)" style="fill:#473b1e"/><path id="Tracé_58" data-name="Tracé 58" d="M21.45,54.56c-.65-1.49-.57-12.15-3.1-14.64-.89.15-1.52.24-1.67.28-.13,1.1-.28,5.13-.37,8.82a46.28,46.28,0,0,1-.3,6.4C15.82,56.26,22,55.92,21.45,54.56Z" transform="translate(0.01 0)" style="fill:#b7d972"/><path id="Tracé_59" data-name="Tracé 59" d="M14.6,40.75c-.71.16-1.23.28-2.16,1.67s-2.87,4.5-2.87,4.5L4.36,44.57l-.24,2.68s5.9,3.11,6.73,2.83,3.17-3.74,3.34-4c0-.05-.2,3.7-.2,4.3s-1.13,5.82-1.13,5.82,2.87.72,3.43-.58c1.72-4,.4-15.44.4-15.44S15.11,40.63,14.6,40.75Z" transform="translate(0.01 0)" style="fill:url(#Dégradé_sans_nom_29)"/><path id="Tracé_60" data-name="Tracé 60" d="M25.3,29.34a1.61,1.61,0,0,1-.35-.92l-.1-.38a21.83,21.83,0,0,1,2.35-.3.91.91,0,0,1,.06.4c-.08.43-.62,3.25-.62,3.25l-1.5,0A6.78,6.78,0,0,0,25.3,29.34Z" transform="translate(0.01 0)" style="fill:#f7a491"/><path id="Tracé_61" data-name="Tracé 61" d="M18.93,40.54s1,3,1.87,2.54a49.74,49.74,0,0,0,5.64-5.57c0-.24.38-6.26.38-6.26l-1.88-.38L23.86,35.8a46,46,0,0,1-4.18,3.7A1.32,1.32,0,0,0,18.93,40.54Z" transform="translate(0.01 0)" style="fill:url(#Dégradé_sans_nom_30)"/><path id="Tracé_62" data-name="Tracé 62" d="M21.7,55.28a3.08,3.08,0,0,0,1.16-.2s-1.08-6.18-1.71-12.32c-.25-2.42-.48-3.42-1.47-3.24-.29,0-1.06.35-1.34.4C20.82,47,20.83,52.5,21.18,54.08,21.36,54.88,21.51,55.28,21.7,55.28Z" transform="translate(0.01 0)" style="fill:url(#Dégradé_sans_nom_31)"/><path id="Tracé_63" data-name="Tracé 63" d="M18.08,38.85l.26,1.07s.06.93-.37,1-1.28-.68-1.28-.68l-.44-3Z" transform="translate(0.01 0)" style="fill:#f7a491"/><path id="Tracé_64" data-name="Tracé 64" d="M18.08,38.85l.26,1.07s.06.93-.37,1-1.28-.68-1.28-.68l-.44-3Z" transform="translate(0.01 0)" style="fill:#f7a491"/><path id="Tracé_65" data-name="Tracé 65" d="M16.25,37.24l1.83,1.6.19.8A3.07,3.07,0,0,1,16.25,37.24Z" transform="translate(0.01 0)" style="fill:#f47458"/><path id="Tracé_66" data-name="Tracé 66" d="M18.09,34.46a1.08,1.08,0,0,1,1,.76,9.4,9.4,0,0,1,.4,1.56c.19,1.16-.46,2.23-1,2.32a2.16,2.16,0,0,1-2.22-2c-.13-.71-.3-1.63.28-2.12A2.43,2.43,0,0,1,18.09,34.46Z" transform="translate(0.01 0)" style="fill:#f7a491"/><path id="Tracé_67" data-name="Tracé 67" d="M16.42,38.4s-2-1.81-2.09-3.23A2.21,2.21,0,0,1,16.64,33,7.64,7.64,0,0,1,18,33c1.11.14,1.82.64,1.57,1.56-.34,1.23-2.63.19-3.1.58s.24,1.07-.14,1.36-.17.18-.06.7A11,11,0,0,1,16.42,38.4Z" transform="translate(0.01 0)" style="fill:url(#Dégradé_sans_nom_32)"/><path id="Tracé_68" data-name="Tracé 68" d="M15.64,36.75c0,.34.25.59.46.56s.33-.33.28-.67-.25-.59-.46-.56S15.59,36.41,15.64,36.75Z" transform="translate(0.01 0)" style="fill:#f7a491"/><path id="Tracé_69" data-name="Tracé 69" d="M25.41,28a2.39,2.39,0,0,1,.65.62s.85-.55.82-.72-.9.2-.9.2Z" transform="translate(0.01 0)" style="fill:#f47458"/></g><g id="Groupe_59" data-name="Groupe 59"><path id="Tracé_70" data-name="Tracé 70" d="M3.59,16.65,26.43,28.57a2.61,2.61,0,0,0,3.47-1.29l5.83-11.49a2.67,2.67,0,0,0-1-3.61L11.92.26A2.61,2.61,0,0,0,8.45,1.55L2.62,13A2.66,2.66,0,0,0,3.59,16.65Z" transform="translate(0.01 0)" style="fill:url(#Dégradé_sans_nom_33)"/><polygon id="Rectangle_17" data-name="Rectangle 17" points="2.75 12.78 4.53 9.3 31.82 23.55 30.05 27.03 2.75 12.78" style="fill:#473b1e"/></g><polygon id="Rectangle_18" data-name="Rectangle 18" points="11.48 1.9 17.49 5.05 15.77 8.43 9.75 5.28 11.48 1.9" style="fill:#b7d972"/><path id="Tracé_71" data-name="Tracé 71" d="M25.4,28c0-.11-.12-.26-.08-.32.24-.38,0-.79-.2-.47a1.94,1.94,0,0,0-.27.81c0,.15.17.74.17.74a.55.55,0,0,0,.42-.65A.76.76,0,0,0,25.4,28Z" transform="translate(0.01 0)" style="fill:#f7a491"/></g><g id="Groupe_66" data-name="Groupe 66"><g id="Groupe_65" data-name="Groupe 65"><g id="Groupe_62" data-name="Groupe 62"><path id="Tracé_72" data-name="Tracé 72" d="M94.22,67.7a15.37,15.37,0,0,0,0,2.35c.06.31.4.94.24,1.24a.82.82,0,0,1-.33.36l-4,.07c-.22,0-.08-.14.1-.27a7.61,7.61,0,0,1,1.45-.8l.36-.22a2.56,2.56,0,0,0,.58-.51A5.21,5.21,0,0,0,92.87,68Z" transform="translate(0.01 0)" style="fill:#f7a491"/><path id="Tracé_73" data-name="Tracé 73" d="M91.06,44.1s-1.74-.87-1.4,1,2.88,23.14,2.88,23.14l2.39.13s.3-7.09.24-8.1a19,19,0,0,0-.46-2.59l-.2-6.29-2.25-7.76Z" transform="translate(0.01 0)" style="fill:#473b1e"/><path id="Tracé_74" data-name="Tracé 74" d="M92,70.43a3.62,3.62,0,0,0,2.3-.09,1.88,1.88,0,0,1,.19,1c-.1.29-.23.41-.35.42-1,0-3.59,0-4.34,0a.12.12,0,0,1-.12-.12.11.11,0,0,1,0-.08A18.06,18.06,0,0,1,92,70.43Z" transform="translate(0.01 0)" style="fill:url(#Dégradé_sans_nom_34)"/><path id="Tracé_75" data-name="Tracé 75" d="M89.66,31.33A28.47,28.47,0,0,1,88,27.41c-.23-1.05-1-6.35-.95-6.69s1.32-1.16,1.16-1.45S86.83,19,86.55,19a2.3,2.3,0,0,0-1,.38c-.23.2.26,6.55.41,7.92a36.09,36.09,0,0,0,2,5.58Z" transform="translate(0.01 0)" style="fill:#f7a491"/><g id="Groupe_61" data-name="Groupe 61"><path id="Tracé_76" data-name="Tracé 76" d="M101.1,53.67a14.25,14.25,0,0,0,1.48-1.81c.14-.28.28-1,.58-1.12a.75.75,0,0,1,.49-.07l3.18,2.53c.17.14,0,.15-.25.14A8.23,8.23,0,0,1,105,53a4.23,4.23,0,0,0-.42-.06,2.49,2.49,0,0,0-.77,0c-.43.06-1.42,1.26-1.42,1.26Z" transform="translate(0.01 0)" style="fill:#f7a491"/><path id="Tracé_77" data-name="Tracé 77" d="M104.54,53a3.76,3.76,0,0,0-1.84-1.4c.11-.32.23-.75.44-.88s.43-.13.53-.05c.77.6,2.8,2.26,3.39,2.73a.12.12,0,0,1,0,.17.18.18,0,0,1-.07,0A22.2,22.2,0,0,1,104.54,53Z" transform="translate(0.01 0)" style="fill:url(#Dégradé_sans_nom_35)"/><path id="Tracé_78" data-name="Tracé 78" d="M101.13,30.45a3.52,3.52,0,0,0-4-2.06,3.74,3.74,0,0,0-2.41-1.49c-1.84-.26-4.22.64-4,2.59a3.67,3.67,0,0,0,.72,4.17,3.14,3.14,0,0,0,3.66,3.17,3.79,3.79,0,0,0,3.69,1.61,9.32,9.32,0,0,1,.92-.17c-.11,0,2.4,1.65,4.12-1.31S103.83,30.57,101.13,30.45Z" transform="translate(0.01 0)" style="fill:#002a24"/><path id="Tracé_79" data-name="Tracé 79" d="M90.35,44.78s3.9-1.76,4-1.56c.49,1.6,2,1.08,2.91,3.89.38,1.18.77,9,.77,9s1.54-1.29,3.74-3.55c.17-.17,1.82,1.42,1.82,1.42-4.36,6-6.24,6.29-7,5.95-1.52-.7-4.72-10.46-4.72-10.46C91.47,48.72,90.35,44.78,90.35,44.78Z" transform="translate(0.01 0)" style="fill:#847d3d"/><path id="Tracé_80" data-name="Tracé 80" d="M96.82,33.75s5.64,0,6.84-.08,5.42,0,5.59,0,1.29-1.94,1.48-1.74-.62.95-.37,1.15,2.94-.24,2.9,0c-.07.38-1.64.33-1.63.51s1.64-.1,1.75.2-1.58.12-1.64.26,1.57.38,1.4.66-1.45-.25-1.44-.05,1,.68.87.85-.78-.51-1.35-.52a4.43,4.43,0,0,0-1.9-.06c-.45.13-3.91.55-6.83.81s-5.45.34-5.45.34Z" transform="translate(0.01 0)" style="fill:#f7a491"/><path id="Tracé_81" data-name="Tracé 81" d="M88.46,37.79a7.36,7.36,0,0,1,.14-1.93c-.27-1-.86-3-1.07-3.38,0,0,1-1.91,2-1.9,0,0,1,2.34,1.82,2.76a2.64,2.64,0,0,0,.4.12l3.94-.1-.28,3.85c-1.94,3.85-1.41,5.88-.68,6.62.35.35-4.84,1.78-5.08,1.28A56.33,56.33,0,0,1,88.46,37.79Z" transform="translate(0.01 0)" style="fill:#edfdfc"/><path id="Tracé_82" data-name="Tracé 82" d="M94.32,33.51a24.35,24.35,0,0,1,4.07-.12s.5,2.52.1,3.13c0,0-3.19.48-3.1.75Z" transform="translate(0.01 0)" style="fill:#edfdfc"/><path id="Tracé_83" data-name="Tracé 83" d="M93.39,31.89q0,1,0,2a2,2,0,0,1-1.78,1.94c-1.2,0-.17-1.29-.07-1.85s.23-2.77.23-2.77Z" transform="translate(0.01 0)" style="fill:#f7a491"/><path id="Tracé_84" data-name="Tracé 84" d="M91.77,31.15s0,.51-.07,1.11a1.37,1.37,0,0,0,1.66.41c0-.42,0-.78,0-.78Z" transform="translate(0.01 0)" style="fill:#f47458"/><path id="Tracé_85" data-name="Tracé 85" d="M93.49,27.79a2,2,0,0,1,1.06.89,2.73,2.73,0,0,1-.92,3.45c-1.46.81-2.46-.55-2.4-1.8S91.67,27.44,93.49,27.79Z" transform="translate(0.01 0)" style="fill:#f7a491"/><path id="Tracé_86" data-name="Tracé 86" d="M90.93,29.93c.1.31.32.51.5.45s.24-.36.14-.67-.32-.51-.5-.45S90.83,29.62,90.93,29.93Z" transform="translate(0.01 0)" style="fill:#f7a491"/><path id="Tracé_87" data-name="Tracé 87" d="M93.28,27.74S94,29.8,94.78,30s.68,1.24.68,1.24.14-2.32-.55-2.9A3,3,0,0,0,93.28,27.74Z" transform="translate(0.01 0)" style="fill:#002a24"/><path id="Tracé_88" data-name="Tracé 88" d="M94.45,30.42c-.12.32,0,.64.16.73s.48-.1.61-.42,0-.64-.16-.73S94.57,30.1,94.45,30.42Z" transform="translate(0.01 0)" style="fill:#f7a491"/></g><path id="Tracé_89" data-name="Tracé 89" d="M85.29,19.87l1.85.07c.2,0,.76-.59.76-.59Z" transform="translate(0.01 0)" style="fill:#f47458"/></g><g id="Groupe_64" data-name="Groupe 64"><ellipse id="Ellipse_12" data-name="Ellipse 12" cx="85.45" cy="13.44" rx="6.41" ry="6.5" style="fill:#edfdfc"/><path id="Tracé_90" data-name="Tracé 90" d="M89.84,10.31a5.5,5.5,0,0,1-1.31,7.6A5.33,5.33,0,0,1,81,16.58,5.5,5.5,0,0,1,82.35,9h0A5.32,5.32,0,0,1,89.84,10.31Z" transform="translate(0.01 0)" style="fill:url(#Dégradé_sans_nom_36)"/><g id="Groupe_63" data-name="Groupe 63"><path id="Tracé_91" data-name="Tracé 91" d="M86.06,17.27l-.23-.88a4,4,0,0,1-1.15.1.56.56,0,0,1-.52-.55v0a.55.55,0,0,1,.54-.56h0a3.32,3.32,0,0,0,1-.1c.52-.14.82-.44.72-.81s-.45-.5-1.18-.54c-1.07-.07-1.85-.35-2.09-1.24a1.78,1.78,0,0,1,1.1-2.07L84.1,9.7,85,9.45l.22.81a4.13,4.13,0,0,1,.86-.11.55.55,0,0,1,.55.55h0a.55.55,0,0,1-.54.56h0a2.6,2.6,0,0,0-.83.11c-.59.16-.72.47-.65.73s.45.41,1.31.5c1.19.09,1.76.48,2,1.31a1.85,1.85,0,0,1-1.17,2.16L87,17Z" transform="translate(0.01 0)" style="fill:#edfdfc"/></g></g></g><path id="Tracé_92" data-name="Tracé 92" d="M87.12,19.94l.68-.62s-.32-.39-.19-.46.59.35.56.46a2.46,2.46,0,0,1-.43.48Z" transform="translate(0.01 0)" style="fill:#f7a491"/></g></g></svg>